{
  "accessors": [
    {
      "bufferView": 2,
      "componentType": 5126,
      "count": 1688,
      "max": [
        -230.3079071044922,
        56.54953384399414,
        390.0004577636719
      ],
      "min": [
        -279.05780029296875,
        15.010175704956055,
        369.33062744140625
      ],
      "type": "VEC3"
    },
    {
      "bufferView": 2,
      "byteOffset": 20256,
      "componentType": 5126,
      "count": 1688,
      "max": [
        0.9970237612724304,
        0.9937665462493896,
        0.9999462366104126
      ],
      "min": [
        -0.9283064007759094,
        -0.999943196773529,
        -0.9999463558197021
      ],
      "type": "VEC3"
    },
    {
      "bufferView": 3,
      "componentType": 5126,
      "count": 1688,
      "max": [
        0.999943196773529,
        0.9463598132133484,
        0.9992429614067078,
        1.0
      ],
      "min": [
        -0.9919834733009338,
        -0.9970238208770752,
        -0.9992430210113525,
        -1.0
      ],
      "type": "VEC4"
    },
    {
      "bufferView": 1,
      "componentType": 5126,
      "count": 1688,
      "max": [
        0.9931033253669739,
        0.9856288433074951
      ],
      "min": [
        0.5891046524047852,
        0.5268571376800537
      ],
      "type": "VEC2"
    },
    {
      "bufferView": 0,
      "componentType": 5125,
      "count": 8016,
      "type": "SCALAR"
    }
  ],
  "asset": {
    "extras": {
      "author": "velvel (https://sketchfab.com/velvel)",
      "license": "CC-BY-4.0 (http://creativecommons.org/licenses/by/4.0/)",
      "source": "https://sketchfab.com/3d-models/pigeon-3dmodel-free-e3ee02557a7d43a59ac030f5292aa2d3",
      "title": "pigeon  - 3dModel - Free"
    },
    "generator": "Sketchfab-12.65.0",
    "version": "2.0"
  },
  "bufferViews": [
    {
      "buffer": 0,
      "byteLength": 32064,
      "name": "floatBufferViews",
      "target": 34963
    },
    {
      "buffer": 0,
      "byteLength": 13504,
      "byteOffset": 32064,
      "byteStride": 8,
      "name": "floatBufferViews",
      "target": 34962
    },
    {
      "buffer": 0,
      "byteLength": 40512,
      "byteOffset": 45568,
      "byteStride": 12,
      "name": "floatBufferViews",
      "target": 34962
    },
    {
      "buffer": 0,
      "byteLength": 27008,
      "byteOffset": 86080,
      "byteStride": 16,
      "name": "floatBufferViews",
      "target": 34962
    }
  ],
  "buffers": [
    {
      "byteLength": 113088,
      "uri": "scene.bin"
    }
  ],
  "images": [
    {
      "uri": "textures/Pigeon_mat_baseColor.png"
    },
    {
      "uri": "textures/Pigeon_mat_metallicRoughness.png"
    },
    {
      "uri": "textures/Pigeon_mat_normal.png"
    }
  ],
  "materials": [
    {
      "doubleSided": true,
      "name": "Pigeon_mat",
      "normalTexture": {
        "index": 2
      },
      "pbrMetallicRoughness": {
        "baseColorTexture": {
          "index": 0
        },
        "metallicFactor": 0.0,
        "metallicRoughnessTexture": {
          "index": 1
        }
      }
    }
  ],
  "meshes": [
    {
      "name": "Venezia_Pegeon_Pigeon_mat_0",
      "primitives": [
        {
          "attributes": {
            "NORMAL": 1,
            "POSITION": 0,
            "TANGENT": 2,
            "TEXCOORD_0": 3
          },
          "indices": 4,
          "material": 0,
          "mode": 4
        }
      ]
    }
  ],
  "nodes": [
    {
      "children": [
        1
      ],
      "matrix": [
        1.0,
        0.0,
        0.0,
        0.0,
        0.0,
        2.220446049250313e-16,
        -1.0,
        0.0,
        0.0,
        1.0,
        2.220446049250313e-16,
        0.0,
        0.0,
        0.0,
        0.0,
        1.0
      ],
      "name": "Sketchfab_model"
    },
    {
      "children": [
        2
      ],
      "matrix": [
        1.0,
        0.0,
        0.0,
        0.0,
        0.0,
        0.0,
        1.0,
        0.0,
        0.0,
        -1.0,
        0.0,
        0.0,
        0.0,
        0.0,
        0.0,
        1.0
      ],
      "name": "Pegeon.fbx"
    },
    {
      "children": [
        3
      ],
      "name": "RootNode"
    },
    {
      "children": [
        4
      ],
      "name": "Perfect"
    },
    {
      "children": [
        5
      ],
      "name": "Venezia_Pegeon"
    },
    {
      "mesh": 0,
      "name": "Venezia_Pegeon_Pigeon_mat_0"
    }
  ],
  "samplers": [
    {
      "magFilter": 9729,
      "minFilter": 9987,
      "wrapS": 10497,
      "wrapT": 10497
    }
  ],
  "scene": 0,
  "scenes": [
    {
      "name": "Sketchfab_Scene",
      "nodes": [
        0
      ]
    }
  ],
  "textures": [
    {
      "sampler": 0,
      "source": 0
    },
    {
      "sampler": 0,
      "source": 1
    },
    {
      "sampler": 0,
      "source": 2
    }
  ]
}
